# xmcd
#
# Track frame offsets: 
#        150
#        15267
#        29065
#        41235
#        55727
#        68690
#        81222
#        94662
#        107970
#        122417
#        136137
#        150035
#        163595
#        176410
#        188682
#        201465
#        213634
#        227322
#
# Disc length: 3223 seconds
#
# Revision: 0
# Processed by: cddbd v1.4PL0 Copyright (c) Steve Scherf et al.
# Submitted via: ExactAudioCopy v0.90a11
#
DISCID=e30c9512
DTITLE=Sonny Boy Williamson - Baby Please Don't Go
DYEAR=1900
DGENRE=
TTITLE0=Baby Please Don't Go
TTITLE1=Good Morning Little Schoolgirl
TTITLE2=Throw a Boogie Woogie
TTITLE3=Highway 49
TTITLE4=It Seems Like a Dream
TTITLE5=Tappin' That Thong
TTITLE6=The Big Boat
TTITLE7=Stop Breaking Down
TTITLE8=You're an Old Lady
TTITLE9=Springtime Blues
TTITLE10=Coal and Iceman Blues
TTITLE11=Blues That Made Me Drunk
TTITLE12=Miss Stella Brown Blues
TTITLE13=G.M. and O. Blues
TTITLE14=Sonny Boy's Jump
TTITLE15=Elevator Man
TTITLE16=Early In the Morning
TTITLE17=Suzie Q.
EXTD=
EXTT0=
EXTT1=
EXTT2=
EXTT3=
EXTT4=
EXTT5=
EXTT6=
EXTT7=
EXTT8=
EXTT9=
EXTT10=
EXTT11=
EXTT12=
EXTT13=
EXTT14=
EXTT15=
EXTT16=
EXTT17=
PLAYORDER=
